<svg width="112" height="41" viewBox="0 0 112 41" fill="none" xmlns="http://www.w3.org/2000/svg">
<g clip-path="url(#clip0_1310_3513)">
<path d="M58.1605 14.53C58.1605 15.3949 57.4357 16.0916 56.536 16.0916C55.6363 16.0916 54.9115 15.3949 54.9115 14.53C54.9115 13.6652 55.6113 12.9685 56.536 12.9685C57.4607 12.9925 58.1605 13.6892 58.1605 14.53ZM51.4626 17.6772C51.4626 17.8213 51.4626 18.0616 51.4626 18.0616C51.4626 18.0616 50.6878 17.1006 49.0383 17.1006C46.3142 17.1006 44.1899 19.0946 44.1899 21.8574C44.1899 24.5961 46.2892 26.6141 49.0383 26.6141C50.7128 26.6141 51.4626 25.6291 51.4626 25.6291V26.0375C51.4626 26.2297 51.6125 26.3739 51.8125 26.3739H53.8368V17.3408C53.8368 17.3408 51.9874 17.3408 51.8125 17.3408C51.6125 17.3408 51.4626 17.509 51.4626 17.6772ZM51.4626 23.467C51.0877 23.9955 50.3379 24.452 49.4382 24.452C47.8387 24.452 46.6141 23.491 46.6141 21.8574C46.6141 20.2237 47.8387 19.2628 49.4382 19.2628C50.3129 19.2628 51.1127 19.7432 51.4626 20.2477V23.467ZM55.3364 17.3408H57.7356V26.3739H55.3364V17.3408ZM91.1752 17.1006C89.5257 17.1006 88.7509 18.0616 88.7509 18.0616V12.9925H86.3517V26.3739C86.3517 26.3739 88.2011 26.3739 88.376 26.3739C88.576 26.3739 88.7259 26.2057 88.7259 26.0375V25.6291C88.7259 25.6291 89.5007 26.6141 91.1502 26.6141C93.8743 26.6141 95.9987 24.5961 95.9987 21.8574C95.9987 19.1186 93.8743 17.1006 91.1752 17.1006ZM90.7753 24.4279C89.8506 24.4279 89.1258 23.9715 88.7509 23.4429V20.2237C89.1258 19.7432 89.9256 19.2387 90.7753 19.2387C92.3748 19.2387 93.5994 20.1997 93.5994 21.8333C93.5994 23.467 92.3748 24.4279 90.7753 24.4279ZM85.1021 21.0165V26.3979H82.7028V21.2808C82.7028 19.7913 82.203 19.1907 80.8534 19.1907C80.1286 19.1907 79.3789 19.5511 78.904 20.0796V26.3739H76.5048V17.3408H78.4042C78.6041 17.3408 78.7541 17.509 78.7541 17.6772V18.0616C79.4538 17.3649 80.3785 17.1006 81.3033 17.1006C82.3529 17.1006 83.2277 17.3889 83.9274 17.9655C84.7772 18.6381 85.1021 19.503 85.1021 21.0165ZM70.6816 17.1006C69.0321 17.1006 68.2573 18.0616 68.2573 18.0616V12.9925H65.8581V26.3739C65.8581 26.3739 67.7075 26.3739 67.8825 26.3739C68.0824 26.3739 68.2323 26.2057 68.2323 26.0375V25.6291C68.2323 25.6291 69.0071 26.6141 70.6566 26.6141C73.3807 26.6141 75.5051 24.5961 75.5051 21.8574C75.5301 19.1186 73.4057 17.1006 70.6816 17.1006ZM70.2817 24.4279C69.357 24.4279 68.6322 23.9715 68.2573 23.4429V20.2237C68.6322 19.7432 69.432 19.2387 70.2817 19.2387C71.8812 19.2387 73.1058 20.1997 73.1058 21.8333C73.1058 23.467 71.8812 24.4279 70.2817 24.4279ZM63.7837 17.1006C64.5085 17.1006 64.8834 17.2207 64.8834 17.2207V19.3589C64.8834 19.3589 62.884 18.7102 61.6344 20.0796V26.3979H59.2352V17.3408C59.2352 17.3408 61.0846 17.3408 61.2595 17.3408C61.4595 17.3408 61.6094 17.509 61.6094 17.6772V18.0616C62.0593 17.5571 63.034 17.1006 63.7837 17.1006ZM38.8665 25.5571C38.7416 25.2688 38.6166 24.9565 38.4916 24.6922C38.2917 24.2598 38.0918 23.8514 37.9168 23.467L37.8918 23.4429C36.1674 19.8393 34.3179 16.1877 32.3685 12.5841L32.2936 12.4399C32.0936 12.0796 31.8937 11.6952 31.6938 11.3108C31.4438 10.8784 31.1939 10.4219 30.794 9.98949C29.9943 9.02853 28.8447 8.5 27.62 8.5C26.3704 8.5 25.2458 9.02853 24.421 9.94144C24.0462 10.3739 23.7712 10.8303 23.5213 11.2628C23.3214 11.6471 23.1214 12.0315 22.9215 12.3919L22.8465 12.536C20.9221 16.1396 19.0477 19.7913 17.3233 23.3949L17.2983 23.4429C17.1233 23.8273 16.9234 24.2357 16.7234 24.6682C16.5985 24.9324 16.4735 25.2207 16.3486 25.533C16.0237 26.4219 15.9237 27.2628 16.0486 28.1276C16.3236 29.9294 17.5732 31.4429 19.2976 32.1156C19.9474 32.3799 20.6222 32.5 21.322 32.5C21.5219 32.5 21.7719 32.476 21.9718 32.452C22.7965 32.3559 23.6463 32.0916 24.471 31.6351C25.4957 31.0826 26.4704 30.2898 27.57 29.1366C28.6697 30.2898 29.6694 31.0826 30.6691 31.6351C31.4938 32.0916 32.3436 32.3559 33.1683 32.452C33.3682 32.476 33.6182 32.5 33.8181 32.5C34.5179 32.5 35.2177 32.3799 35.8425 32.1156C37.5919 31.4429 38.8165 29.9054 39.0914 28.1276C39.2914 27.2868 39.1914 26.4459 38.8665 25.5571ZM27.595 26.8063C26.2455 25.1727 25.3707 23.6351 25.0708 22.3378C24.9459 21.7853 24.9209 21.3048 24.9959 20.8724C25.0458 20.488 25.1958 20.1517 25.3957 19.8634C25.8706 19.2147 26.6703 18.8063 27.595 18.8063C28.5198 18.8063 29.3445 19.1907 29.7944 19.8634C29.9943 20.1517 30.1442 20.488 30.1942 20.8724C30.2692 21.3048 30.2442 21.8093 30.1193 22.3378C29.8193 23.6111 28.9446 25.1486 27.595 26.8063ZM37.5669 27.9354C37.392 29.1847 36.5173 30.2658 35.2926 30.7462C34.6928 30.9865 34.043 31.0586 33.3932 30.9865C32.7684 30.9144 32.1436 30.7222 31.4938 30.3619C30.5941 29.8814 29.6944 29.1366 28.6447 28.0315C30.2942 26.0856 31.2939 24.3078 31.6688 22.7222C31.8437 21.9775 31.8687 21.3048 31.7937 20.6802C31.6938 20.0796 31.4688 19.527 31.1189 19.0465C30.3442 17.9655 29.0446 17.3408 27.595 17.3408C26.1455 17.3408 24.8459 17.9895 24.0711 19.0465C23.7213 19.527 23.4963 20.0796 23.3964 20.6802C23.2964 21.3048 23.3214 22.0015 23.5213 22.7222C23.8962 24.3078 24.9209 26.1096 26.5454 28.0556C25.5207 29.1607 24.596 29.9054 23.6963 30.3859C23.0465 30.7462 22.4217 30.9384 21.7969 31.0105C21.1221 31.0826 20.4723 30.9865 19.8974 30.7703C18.6728 30.2898 17.7981 29.2087 17.6232 27.9595C17.5482 27.3589 17.5982 26.7583 17.8481 26.0856C17.9231 25.8453 18.048 25.6051 18.173 25.3168C18.3479 24.9324 18.5479 24.524 18.7478 24.1156L18.7728 24.0676C20.4973 20.488 22.3467 16.8363 24.2711 13.2808L24.3461 13.1366C24.546 12.7763 24.7459 12.3919 24.9459 12.0315C25.1458 11.6471 25.3707 11.2868 25.6457 10.9745C26.1705 10.3979 26.8703 10.0856 27.645 10.0856C28.4198 10.0856 29.1196 10.3979 29.6444 10.9745C29.9193 11.2868 30.1442 11.6471 30.3442 12.0315C30.5441 12.3919 30.7441 12.7763 30.944 13.1366L31.019 13.2808C32.9184 16.8604 34.7678 20.512 36.4923 24.0916V24.1156C36.6922 24.5 36.8671 24.9324 37.0671 25.3168C37.192 25.6051 37.317 25.8453 37.392 26.0856C37.5919 26.7102 37.6669 27.3108 37.5669 27.9354Z" fill="#B3B6BF"/>
</g>
<defs>
<clipPath id="clip0_1310_3513">
<rect width="80" height="24" fill="white" transform="translate(16 8.5)"/>
</clipPath>
</defs>
</svg>
