<svg width="112" height="41" viewBox="0 0 112 41" fill="none" xmlns="http://www.w3.org/2000/svg">
<path fill-rule="evenodd" clip-rule="evenodd" d="M23.3424 10.2898C23.3424 11.2661 22.5288 12.0797 21.5525 12.0797C20.5763 12.0797 19.7627 11.2661 19.7627 10.2898C19.7627 9.31356 20.5763 8.5 21.5525 8.5C22.5288 8.5 23.3424 9.31356 23.3424 10.2898ZM21.5525 13.5441C20.4949 13.5441 19.6814 14.3576 19.6814 15.4153C19.6814 16.4729 20.4949 17.2864 21.5525 17.2864C22.6102 17.2864 23.4237 16.4729 23.4237 15.4153C23.4237 14.3576 22.6102 13.5441 21.5525 13.5441ZM21.5525 18.5881C20.4949 18.5881 19.6 19.4831 19.6 20.5407C19.6 21.5983 20.4949 22.4932 21.5525 22.4932C22.6102 22.4932 23.5051 21.5983 23.5051 20.5407C23.5051 19.4831 22.6102 18.5881 21.5525 18.5881ZM21.5525 23.7136C20.4949 23.7136 19.6814 24.5271 19.6814 25.5847C19.6814 26.6424 20.4949 27.4559 21.5525 27.4559C22.6102 27.4559 23.4237 26.6424 23.4237 25.5847C23.4237 24.6085 22.6102 23.7136 21.5525 23.7136ZM21.5525 28.9203C20.5763 28.9203 19.7627 29.7339 19.7627 30.7102C19.7627 31.6864 20.5763 32.5 21.5525 32.5C22.5288 32.5 23.3424 31.6864 23.3424 30.7102C23.3424 29.7339 22.5288 28.9203 21.5525 28.9203ZM26.5153 13.3C25.3763 13.3 24.4 14.2763 24.4 15.4153C24.4 16.5542 25.3763 17.5305 26.5153 17.5305C27.6542 17.5305 28.6305 16.5542 28.6305 15.4153C28.6305 14.2763 27.6542 13.3 26.5153 13.3ZM26.5153 18.3441C25.2949 18.3441 24.3186 19.3203 24.3186 20.5407C24.3186 21.761 25.2949 22.7373 26.5153 22.7373C27.7356 22.7373 28.7119 21.761 28.7119 20.5407C28.7119 19.3203 27.7356 18.3441 26.5153 18.3441ZM26.5153 23.4695C25.3763 23.4695 24.4 24.4458 24.4 25.5847C24.4 26.7237 25.3763 27.7 26.5153 27.7C27.6542 27.7 28.6305 26.7237 28.6305 25.5847C28.6305 24.4458 27.6542 23.4695 26.5153 23.4695ZM31.6407 18.1C30.339 18.1 29.2 19.1576 29.2 20.5407C29.2 21.8424 30.2576 22.9814 31.6407 22.9814C33.0237 22.9814 34.0814 21.9237 34.0814 20.5407C34 19.1576 32.9424 18.1 31.6407 18.1ZM16.5085 13.7881C15.6136 13.7881 14.8814 14.5203 14.8814 15.4153C14.8814 16.3102 15.6136 17.0424 16.5085 17.0424C17.4034 17.0424 18.1356 16.3102 18.1356 15.4153C18.1356 14.5203 17.4034 13.7881 16.5085 13.7881ZM16.5085 18.8322C15.5322 18.8322 14.8 19.5644 14.8 20.5407C14.8 21.5169 15.5322 22.2492 16.5085 22.2492C17.4847 22.2492 18.2169 21.5169 18.2169 20.5407C18.2169 19.5644 17.4847 18.8322 16.5085 18.8322ZM16.5085 23.9576C15.6136 23.9576 14.8814 24.6898 14.8814 25.5847C14.8814 26.4797 15.6136 27.2119 16.5085 27.2119C17.4034 27.2119 18.1356 26.4797 18.1356 25.5847C18.1356 24.6898 17.4034 23.9576 16.5085 23.9576ZM11.4644 19.0763C10.6508 19.0763 10 19.7271 10 20.5407C10 21.3542 10.6508 22.0051 11.4644 22.0051C12.278 22.0051 12.9288 21.3542 12.9288 20.5407C12.9288 19.7271 12.278 19.0763 11.4644 19.0763ZM52.4678 17.3678C52.3051 17.3678 52.1424 17.5305 52.1424 17.6932V30.4661C52.1424 30.6288 52.3051 30.7915 52.4678 30.7915H54.0136C54.1763 30.7915 54.339 30.6288 54.339 30.4661V17.6932C54.339 17.5305 54.1763 17.3678 54.0136 17.3678H52.4678ZM51.817 13.4627C51.817 12.6491 52.4678 11.9983 53.2814 11.9983C54.0949 11.9983 54.7458 12.6491 54.7458 13.4627C54.7458 14.2763 54.0949 14.9271 53.2814 14.9271C52.4678 14.9271 51.817 14.2763 51.817 13.4627ZM85.2542 17.3678C85.0915 17.3678 84.9288 17.5305 84.9288 17.6932V30.4661C84.9288 30.6288 85.0915 30.7915 85.2542 30.7915H86.8C86.9627 30.7915 87.1254 30.6288 87.1254 30.4661V17.6932C87.1254 17.5305 86.9627 17.3678 86.8 17.3678H85.2542ZM84.522 13.4627C84.522 12.6491 85.1729 11.9983 85.9864 11.9983C86.8 11.9983 87.4508 12.6491 87.4508 13.4627C87.4508 14.2763 86.8 14.9271 85.9864 14.9271C85.1729 14.9271 84.522 14.2763 84.522 13.4627ZM101.444 29.5712C101.498 29.5175 101.516 29.4638 101.522 29.4101C101.525 29.4345 101.525 29.4622 101.525 29.4898C101.525 29.5712 101.525 29.6525 101.444 29.6525C101.433 29.6525 101.422 29.654 101.411 29.6565C101.433 29.6308 101.444 29.601 101.444 29.5712ZM101.2 29.7339C101.241 29.7339 101.281 29.7136 101.322 29.6932C101.352 29.6783 101.382 29.6635 101.411 29.6565C101.374 29.7012 101.303 29.7339 101.2 29.7339ZM101.2 29.7339H100.875V29.6525V29.2458H101.2C101.281 29.2458 101.363 29.2458 101.444 29.3271C101.498 29.3271 101.516 29.3626 101.522 29.4101C101.525 29.3824 101.525 29.3548 101.525 29.3271V29.2458C101.525 29.2458 101.525 29.1644 101.444 29.1644C101.444 29.1644 101.363 29.083 101.281 29.083H101.119H100.712V30.222H100.875V29.8153H101.119L101.444 30.222H101.607L101.2 29.7339ZM100.061 29.6525C100.061 29.0831 100.549 28.5949 101.119 28.5949C101.688 28.5949 102.176 29.0831 102.176 29.6525C102.176 30.222 101.688 30.7102 101.119 30.7102C100.549 30.7102 100.061 30.222 100.061 29.6525ZM100.142 29.6525C100.142 30.222 100.549 30.6288 101.119 30.6288C101.607 30.6288 102.095 30.222 102.095 29.6525C102.095 29.0831 101.688 28.6763 101.119 28.6763C100.549 28.6763 100.142 29.0831 100.142 29.6525ZM65.1593 19.483C65.322 19.483 65.4847 19.3203 65.4847 19.1576V17.6119C65.4847 17.4491 65.322 17.2864 65.1593 17.2864H61.9051V12.4051C61.9051 12.2424 61.7424 12.0797 61.5797 12.0797H60.0339C59.8712 12.0797 59.7085 12.2424 59.7085 12.4051V17.2864H58.0814C57.9186 17.2864 57.7559 17.4491 57.7559 17.6119V19.1576C57.7559 19.3203 57.9186 19.483 58.0814 19.483H59.7085V26.8864C59.7085 29.1644 61.2542 30.6288 63.4508 30.6288H65.078C65.2407 30.6288 65.4034 30.4661 65.4034 30.3034V28.7576C65.4034 28.5949 65.2407 28.4322 65.078 28.4322H63.6949C62.6373 28.4322 61.9051 27.7 61.9051 26.561V19.4017H65.1593V19.483ZM97.8644 19.1576C97.8644 19.3203 97.7017 19.483 97.539 19.483V19.4017H94.2034V26.561C94.2034 27.7 94.9356 28.4322 95.9932 28.4322H97.4576C97.6203 28.4322 97.7831 28.5949 97.7831 28.7576V30.3034C97.7831 30.4661 97.6203 30.6288 97.4576 30.6288H95.8305C93.6339 30.6288 92.0881 29.1644 92.0881 26.8864V19.483H90.461C90.2983 19.483 90.1356 19.3203 90.1356 19.1576V17.6119C90.1356 17.4491 90.2983 17.2864 90.461 17.2864H92.0881V12.4051C92.0881 12.2424 92.2509 12.0797 92.4136 12.0797H93.9593C94.122 12.0797 94.2847 12.2424 94.2847 12.4051V17.2864H97.539C97.7017 17.2864 97.8644 17.4491 97.8644 17.6119V19.1576ZM42.7864 19.483V30.3847C42.7864 30.5475 42.9492 30.7102 43.1119 30.7102H44.6576C44.8203 30.7102 44.9831 30.5475 44.9831 30.3847V19.483H48.5627C48.7254 19.483 48.8881 19.3203 48.8881 19.1576V17.6119C48.8881 17.4492 48.7254 17.2864 48.5627 17.2864H44.9831V14.439C44.9831 13.3 45.7966 12.4864 46.7729 12.4864H48.5627C48.7254 12.4864 48.8881 12.3237 48.8881 12.161V10.6153C48.8881 10.4525 48.7254 10.2898 48.5627 10.2898H46.8542C44.5763 10.2898 42.7864 12.161 42.7864 14.3576V17.2864H41.1593C40.9966 17.2864 40.8339 17.4492 40.8339 17.6119V19.1576C40.8339 19.3203 40.9966 19.483 41.1593 19.483H42.7864ZM75.3288 16.8797C77.1187 16.8797 78.8271 17.6119 80.0475 18.9136C81.2678 20.2152 81.9186 22.0051 81.8373 23.9576C81.8373 28.9203 78.5017 31.1169 75.2475 31.1169C71.9932 31.1169 68.6576 28.9203 68.6576 23.9576V10.5339C68.6576 10.3712 68.8203 10.2085 68.9831 10.2085H70.5288C70.6915 10.2085 70.8542 10.3712 70.8542 10.5339V18.6695C71.9119 17.6119 73.6203 16.8797 75.3288 16.8797ZM70.8542 24.039C70.8542 26.4797 72.0746 29.083 75.3288 29.083C78.5831 29.083 79.722 26.4797 79.8034 24.039C79.8034 21.1102 78.0136 19.0763 75.3288 19.0763C72.6441 19.0763 70.8542 21.0288 70.8542 24.039Z" fill="#B3B6BF"/>
</svg>
