<svg width="112" height="41" viewBox="0 0 112 41" fill="none" xmlns="http://www.w3.org/2000/svg">
<path fill-rule="evenodd" clip-rule="evenodd" d="M29.2115 16.8478V19.3026L35.0821 19.2999C34.9019 20.6539 34.4451 21.6452 33.7508 22.3391C32.8946 23.1947 31.5582 24.1365 29.2115 24.1365C25.5936 24.1365 22.7641 21.2226 22.7641 17.6069C22.7641 13.9913 25.5936 11.0773 29.2115 11.0773C31.164 11.0773 32.5892 11.8443 33.6412 12.8304L35.3744 11.0982C33.9074 9.69734 31.9549 8.62256 29.2141 8.62256C24.2598 8.62256 20.0938 12.6556 20.0938 17.6069C20.0938 22.5582 24.2598 26.5913 29.2141 26.5913C31.8871 26.5913 33.9048 25.7147 35.484 24.0713C37.1076 22.4486 37.6114 20.1713 37.6114 18.3295C37.6114 17.7817 37.5697 17.2756 37.4888 16.8478H29.2115ZM78.7314 26.2391V9.28256H76.2516V26.2391H78.7314ZM44.406 26.5939C47.6062 26.5939 50.2139 24.1391 50.2139 20.8078C50.2139 17.453 47.6062 15.0217 44.406 15.0217C41.2058 15.0217 38.5981 17.453 38.5981 20.8078C38.5981 24.1391 41.2058 26.5939 44.406 26.5939ZM44.406 17.3017C46.1601 17.3017 47.6715 18.726 47.6715 20.8078C47.6715 22.866 46.1601 24.3139 44.406 24.3139C42.6519 24.3139 41.1405 22.8686 41.1405 20.8078C41.1405 18.726 42.6519 17.3017 44.406 17.3017ZM56.9354 26.5939C60.1357 26.5939 62.7433 24.1391 62.7433 20.8078C62.7433 17.453 60.1357 15.0217 56.9354 15.0217C53.7352 15.0217 51.1275 17.4556 51.1275 20.8078C51.1275 24.1391 53.7352 26.5939 56.9354 26.5939ZM56.9354 17.3017C58.6896 17.3017 60.2009 18.726 60.2009 20.8078C60.2009 22.866 58.6896 24.3139 56.9354 24.3139C55.1813 24.3139 53.67 22.8686 53.67 20.8078C53.67 18.726 55.1813 17.3017 56.9354 17.3017ZM74.7507 15.3739V25.7591C74.7507 30.0321 72.2291 31.7773 69.2482 31.7773C66.4421 31.7773 64.7533 29.9017 64.1163 28.3678L66.3299 27.4469C66.724 28.3886 67.6898 29.5 69.2456 29.5C71.1537 29.5 72.3362 28.3234 72.3362 26.1086V25.2765H72.2474C71.6784 25.9782 70.582 26.5913 69.1986 26.5913C66.3038 26.5913 63.6517 24.0713 63.6517 20.8286C63.6517 17.5626 66.3038 15.0217 69.1986 15.0217C70.5794 15.0217 71.6758 15.6347 72.2474 16.3156H72.3362V15.3739H74.7507ZM72.5163 20.8286C72.5163 18.7913 71.1563 17.3017 69.4257 17.3017C67.6716 17.3017 66.202 18.7913 66.202 20.8286C66.202 22.8452 67.6716 24.3139 69.4257 24.3139C71.1563 24.3139 72.5163 22.8452 72.5163 20.8286ZM88.3947 22.7121L90.3681 24.0269C89.7312 24.9687 88.1963 26.5913 85.5443 26.5913C82.2553 26.5913 79.799 24.0504 79.799 20.8052C79.799 17.3643 82.2762 15.0191 85.2597 15.0191C88.2642 15.0191 89.7338 17.4086 90.2141 18.7L90.4777 19.3573L82.7382 22.5608C83.3307 23.7217 84.2522 24.3139 85.5443 24.3139C86.839 24.3139 87.7369 23.6773 88.3947 22.7121ZM82.3205 20.6304L87.4941 18.4834C87.2096 17.7608 86.3534 17.2573 85.3459 17.2573C84.0538 17.2573 82.2553 18.3973 82.3205 20.6304Z" fill="#B3B6BF"/>
</svg>
