<svg width="112" height="41" viewBox="0 0 112 41" fill="none" xmlns="http://www.w3.org/2000/svg">
<path fill-rule="evenodd" clip-rule="evenodd" d="M36.4987 24.3194C36.6786 24.9923 36.9688 25.2525 37.4817 25.2525C38.0134 25.2525 38.2922 24.9365 38.2922 24.3194V12.8612H41.6229V24.3194C41.6229 25.9345 41.4111 26.6343 40.5832 27.4534C39.9865 28.0437 38.886 28.5 37.4964 28.5C36.3737 28.5 35.2994 28.1324 34.6143 27.4535C34.0137 26.8583 33.6837 26.2468 33.1681 24.3193L31.1243 16.6806C30.9443 16.0077 30.6542 15.7476 30.1413 15.7476C29.6095 15.7476 29.3307 16.0635 29.3307 16.6806V28.1389H26V16.6806C26 15.0656 26.2119 14.3657 27.0398 13.5466C27.6362 12.9565 28.7369 12.5 30.1266 12.5C31.2493 12.5 32.3236 12.8677 33.0087 13.5465C33.6093 14.1417 33.9393 14.7532 34.4549 16.6807L36.4987 24.3194ZM80.5572 28.1388L76.7107 16.2362C76.6682 16.1048 76.6282 15.9932 76.5665 15.9188C76.4609 15.7916 76.3147 15.7248 76.1179 15.7248C75.9213 15.7248 75.7751 15.7916 75.6693 15.9188C75.6078 15.9931 75.5676 16.1047 75.5252 16.2362L71.6788 28.1389H68.2359L72.4375 15.1366C72.6564 14.4593 72.9694 13.8842 73.3664 13.5011C74.0479 12.844 74.8509 12.5 76.118 12.5C77.3852 12.5 78.1883 12.844 78.8695 13.501C79.2666 13.8842 79.5795 14.4592 79.7985 15.1365L84 28.1388H80.5572ZM67.6213 26.8532C66.7805 27.6803 65.7161 28.1389 63.534 28.1389V28.1388H53.5187L49.6722 16.2361C49.6299 16.1045 49.5898 15.993 49.5282 15.9187C49.4224 15.7915 49.2762 15.7247 49.0795 15.7247C48.8829 15.7247 48.7366 15.7915 48.6309 15.9187C48.5693 15.9931 48.5292 16.1047 48.4868 16.2361L44.6402 28.1388H41.1974L45.399 15.1365C45.6179 14.4592 45.9308 13.8842 46.3279 13.501C47.009 12.844 47.8121 12.5 49.0793 12.5C50.3465 12.5 51.1495 12.844 51.8309 13.5011C52.228 13.8842 52.5409 14.4593 52.7598 15.1366L55.9155 24.9026H64.1434C64.7924 24.9026 65.1301 24.7922 65.3779 24.5516C65.657 24.2805 65.7548 23.8837 65.7548 23.482C65.7548 23.0933 65.6477 22.7637 65.4194 22.5418C65.0868 22.2185 64.6665 22.0926 63.6117 22.0926L60.8512 22.0924C58.8804 22.0924 57.672 21.7907 56.6988 20.8335C55.9546 20.1016 55.4658 18.8785 55.4658 17.5575C55.4658 16.0629 55.911 15.0619 56.8413 14.1469C57.6823 13.3199 58.7466 12.8612 60.9287 12.8612H68.2972V16.0976H60.3194C59.6704 16.0976 59.3327 16.208 59.085 16.4485C58.8058 16.7196 58.708 17.1164 58.708 17.5181C58.708 17.9068 58.8151 18.2366 59.0434 18.4583C59.376 18.7815 59.7963 18.9076 60.8511 18.9076L63.6115 18.9077C65.5822 18.9077 66.7908 19.2093 67.7639 20.1665C68.5081 20.8985 68.9969 22.1218 68.9969 23.4425C68.9969 24.9371 68.5518 25.9382 67.6213 26.8532Z" fill="#B3B6BF"/>
</svg>
